<?xml version="1.0" standalone="no"?><!DOCTYPE svg PUBLIC "-//W3C//DTD SVG 1.1//EN" "http://www.w3.org/Graphics/SVG/1.1/DTD/svg11.dtd"><svg t="1771646954387" class="icon" viewBox="0 0 1024 1024" version="1.1" xmlns="http://www.w3.org/2000/svg" p-id="6039" xmlns:xlink="http://www.w3.org/1999/xlink" width="200" height="200"><path d="M205.075575 193.605561l33.949791 17.433676a52.301028 52.301028 0 0 0 22.939047 5.505372 49.548343 49.548343 0 0 0 24.774172-6.422933l205.533866-110.107429a44.960533 44.960533 0 0 1 43.125409 0l206.451428 110.107429a52.301028 52.301028 0 0 0 49.548343 0l25.691733-14.680991a29.361981 29.361981 0 0 0 15.598552-26.609295 30.279543 30.279543 0 0 0-14.68099-24.774171L582.193517 17.433676a141.304533 141.304533 0 0 0-133.964038 0L205.075575 144.057219a30.279543 30.279543 0 0 0-16.516114 26.609295 28.444419 28.444419 0 0 0 16.516114 22.939047zM772.128831 798.278855L562.924717 910.221407a100.931809 100.931809 0 0 1-91.75619 0l-220.214856-113.777676a33.032228 33.032228 0 0 0-29.361981 0 30.279543 30.279543 0 0 0-13.763429 25.691733v20.186362a49.548343 49.548343 0 0 0 26.609295 44.960533l211.9568 119.283047a142.222095 142.222095 0 0 0 68.817142 17.433676 138.551847 138.551847 0 0 0 67.899581-17.433676l206.451428-117.447923a50.465905 50.465905 0 0 0 25.691733-44.042971v-21.103924a29.361981 29.361981 0 0 0-14.68099-24.774172 28.444419 28.444419 0 0 0-28.444419-0.917561zM968.487078 250.494399a36.702476 36.702476 0 0 0-37.620038 0L555.584222 457.863389a91.75619 91.75619 0 0 1-91.75619 0L91.2979 249.576837a37.620038 37.620038 0 0 0-55.971276 33.032229v358.766703a35.784914 35.784914 0 0 0 20.186361 32.114667l66.064457 35.784914a29.361981 29.361981 0 0 0 12.845867 0 30.279543 30.279543 0 0 0 12.845867 0 27.526857 27.526857 0 0 0 12.845866-22.939047v-165.161143a33.032228 33.032228 0 0 1 48.630781-28.444419l242.236342 128.458667a126.623542 126.623542 0 0 0 117.447924 0l245.906589-131.211352a30.279543 30.279543 0 0 1 30.279543 0 29.361981 29.361981 0 0 1 14.68099 25.691733v169.748952a27.526857 27.526857 0 0 0 12.845867 22.939047 28.444419 28.444419 0 0 0 25.691733 0l70.652267-33.94979a38.5376 38.5376 0 0 0 20.186362-33.032229V282.609066a36.702476 36.702476 0 0 0-20.186362-32.114667z" fill="#ffffff" p-id="6040"></path></svg>